<svg width="24" height="24" viewBox="0 0 24 24" xmlns="http://www.w3.org/2000/svg"><g><path d="M17.625 6.25H6.375A1.128 1.128 0 0 0 5.25 7.375v7.042l3.938-3.9 2.25 2.25 3.54-3.54-1.853-1.852h4.5v4.465c.408.203.786.46 1.125.763V7.375a1.128 1.128 0 0 0-1.125-1.125zm-3.239 5.16a5.08 5.08 0 0 1 3.169.395l-1.782-1.782-1.387 1.386zm-3.42 2.476l-1.778-1.778-3.938 3.895v2.622c.002.62.504 1.123 1.125 1.125h5.227a5.064 5.064 0 0 1-.636-5.864z"/><path d="M14.047 13.007a.302.302 0 0 1 .232-.008.287.287 0 0 1 .164.158c.141.32.464.529.824.533a.962.962 0 0 0 .855-.533.307.307 0 0 1 .376-.15c.427.14.821.362 1.157.653a.266.266 0 0 1 .094.321.849.849 0 0 0-.063 1.005c.18.303.527.476.887.443a.3.3 0 0 1 .333.24c.018.232.018.463 0 .694a5.081 5.081 0 0 1-.062.653.301.301 0 0 1-.334.232.96.96 0 0 0-.886.442.859.859 0 0 0 .062 1.005.264.264 0 0 1-.062.382 3.495 3.495 0 0 1-1.158.643.119.119 0 0 1-.094 0 .281.281 0 0 1-.27-.181.899.899 0 0 0-.835-.523.984.984 0 0 0-.855.523.285.285 0 0 1-.365.15 3.504 3.504 0 0 1-1.157-.602.264.264 0 0 1-.063-.382c.236-.29.261-.69.063-1.005a.96.96 0 0 0-.886-.442.301.301 0 0 1-.334-.232 4.616 4.616 0 0 1-.063-.653c.007-.215.028-.43.063-.643a.3.3 0 0 1 .334-.241.938.938 0 0 0 .886-.442.84.84 0 0 0-.063-1.005.264.264 0 0 1 .063-.382c.336-.291.73-.514 1.157-.653zm1.345 2.249c-.672-.002-1.22.52-1.223 1.169-.004.648.537 1.177 1.21 1.182l-.032.02c.334.011.659-.11.897-.337.239-.226.37-.536.365-.859 0-.648-.544-1.174-1.217-1.175z"/></g></svg>
