<svg width="24" height="24" viewBox="0 0 24 24" xmlns="http://www.w3.org/2000/svg"><g><path d="M5.163 9.896c.082.285.197.558.343.816l-.414.52a.43.43 0 0 0 .031.563l.712.711c.153.151.393.165.562.034l.54-.405c.266.153.55.273.844.357l.079.667c.024.216.207.38.425.38h1.007c.217 0 .4-.164.424-.38l.073-.644c.318-.082.623-.205.909-.366l.5.397a.43.43 0 0 0 .563-.031l.712-.715a.422.422 0 0 0 .033-.562l-.39-.495c.162-.28.288-.58.373-.892l.6-.07a.427.427 0 0 0 .38-.425V8.344c0-.218-.164-.4-.38-.425l-.591-.067a3.712 3.712 0 0 0-.36-.884l.365-.46a.43.43 0 0 0-.03-.563l-.72-.712a.427.427 0 0 0-.563-.034l-.453.355a3.904 3.904 0 0 0-.928-.388l-.059-.58a.425.425 0 0 0-.422-.377H8.31a.428.428 0 0 0-.425.377l-.067.58c-.334.09-.654.225-.95.402l-.465-.369a.43.43 0 0 0-.562.034l-.718.712a.428.428 0 0 0-.03.562L5.48 7a3.614 3.614 0 0 0-.352.895l-.621.07a.427.427 0 0 0-.383.425v1.007c0 .217.164.4.38.424l.658.076zm3.656-2.728a1.668 1.668 0 1 1-.003 0h.003z"/><path d="M18.78 10.144l-.53-.447a.42.42 0 0 0-.563.014l-.281.28a2.925 2.925 0 0 0-.782-.252l-.085-.405a.422.422 0 0 0-.447-.338l-.717.054a.422.422 0 0 0-.377.419v.413c-.266.09-.518.219-.748.38l-.363-.23a.425.425 0 0 0-.562.078l-.45.537a.422.422 0 0 0 .017.563l.306.326c-.106.24-.182.492-.225.75l-.439.09a.425.425 0 0 0-.337.45l.059.693c.017.213.191.38.405.388l.475.014c.087.226.2.441.335.641l-.264.402a.422.422 0 0 0 .078.563l.535.45c.163.14.406.133.562-.014l.349-.326c.228.106.468.183.714.23l.096.478c.043.21.236.355.45.338l.692-.06a.427.427 0 0 0 .38-.421l.014-.467c.256-.087.5-.208.725-.36l.383.253c.18.122.422.088.562-.079l.45-.531a.422.422 0 0 0-.017-.563l-.31-.326c.116-.24.198-.493.246-.754l.422-.087a.425.425 0 0 0 .337-.444l-.06-.695a.422.422 0 0 0-.407-.388h-.422a3.192 3.192 0 0 0-.354-.698l.23-.346a.42.42 0 0 0-.081-.573zm-2.615 4.013a1.364 1.364 0 1 1-.226-2.719 1.364 1.364 0 0 1 .226 2.72zM7.59 16.025a.422.422 0 0 0-.371.416v.427a.42.42 0 0 0 .368.422l.315.042c.051.19.126.374.222.546l-.202.25a.42.42 0 0 0 .025.563l.298.306c.15.154.392.171.563.04l.253-.197c.176.106.365.189.562.247l.034.324a.42.42 0 0 0 .416.377h.428a.422.422 0 0 0 .425-.369l.036-.306c.213-.053.418-.133.61-.236l.237.19a.422.422 0 0 0 .562-.025l.287-.292a.422.422 0 0 0 .037-.563l-.18-.233c.11-.185.197-.383.256-.59l.28-.032a.422.422 0 0 0 .38-.413V16.5a.42.42 0 0 0-.365-.425l-.281-.036a2.478 2.478 0 0 0-.23-.59l.17-.209a.425.425 0 0 0-.025-.563l-.292-.315a.42.42 0 0 0-.563-.039l-.205.158a2.332 2.332 0 0 0-.613-.282l-.028-.264a.422.422 0 0 0-.405-.366h-.425c-.21 0-.39.155-.419.363l-.034.265a2.621 2.621 0 0 0-.638.258l-.211-.171a.422.422 0 0 0-.563.025l-.306.301a.42.42 0 0 0-.04.562l.18.234a2.582 2.582 0 0 0-.241.59l-.307.029zm2.76-.484a1.125 1.125 0 1 1-.002 2.25 1.125 1.125 0 0 1 .001-2.25z"/></g></svg>
