<svg width="128" height="128" viewBox="0 0 24 24" xmlns="http://www.w3.org/2000/svg"><path d="M11.98 19.085H7.992v-.598c0-.33.267-.598.598-.598h3.39v1.196zm6.98-3.988a.29.29 0 0 0-.319-.24.878.878 0 0 1-.847-.438.868.868 0 0 1 .06-.997.27.27 0 0 0-.09-.32 3.181 3.181 0 0 0-1.107-.648.29.29 0 0 0-.359.15.917.917 0 0 1-.818.528.868.868 0 0 1-.787-.528.28.28 0 0 0-.38-.15c-.409.139-.785.36-1.106.648a.27.27 0 0 0-.06.38.858.858 0 0 1 .06.997.887.887 0 0 1-.848.438.29.29 0 0 0-.319.24 5.076 5.076 0 0 0-.06.638c.005.217.025.434.06.648a.29.29 0 0 0 .32.23.907.907 0 0 1 .847.438c.19.312.166.71-.06.997a.27.27 0 0 0 .06.38 3.31 3.31 0 0 0 1.107.597.27.27 0 0 0 .349-.15.937.937 0 0 1 .817-.518c.347-.004.661.2.798.519a.27.27 0 0 0 .26.18.11.11 0 0 0 .09 0 3.31 3.31 0 0 0 1.106-.639.27.27 0 0 0 .06-.379.878.878 0 0 1-.06-.997.907.907 0 0 1 .848-.439.29.29 0 0 0 .319-.229c.033-.215.053-.431.06-.648a4.557 4.557 0 0 0 0-.688zm-3.373 1.922a1.167 1.167 0 1 1 1.176-1.167 1.167 1.167 0 0 1-1.206 1.187l.03-.02zM18.96 6.997A.997.997 0 0 0 17.963 6H5.997A.997.997 0 0 0 5 6.997v8.975a.997.997 0 0 0 .997.997h3.39a.598.598 0 1 0 0-1.197h-3.19V7.197h11.567v3.41a.598.598 0 0 0 1.196 0v-3.61zM16.468 9.49v.628a.997.997 0 0 1-1.167.998 4.567 4.567 0 0 0-.828-.13 4.477 4.477 0 0 0-4.178 2.872.997.997 0 0 1-.917.618H8.49a.997.997 0 0 1-.997-.997V9.49c0-.55.446-.997.997-.997h6.98c.551 0 .998.446.998.997z" /></svg>
