<svg width="24" height="24" viewBox="0 0 24 24" xmlns="http://www.w3.org/2000/svg"><path d="M19.865 16.334a.329.329 0 0 0-.362-.272.997.997 0 0 1-.963-.498.986.986 0 0 1 .068-1.133.306.306 0 0 0-.102-.363 3.615 3.615 0 0 0-1.258-.737.329.329 0 0 0-.408.17c-.17.362-.53.595-.93.6a.986.986 0 0 1-.894-.6.317.317 0 0 0-.43-.17 3.615 3.615 0 0 0-1.259.737.306.306 0 0 0-.068.43c.263.325.29.78.068 1.134-.196.339-.572.533-.963.498a.329.329 0 0 0-.362.272c-.038.24-.061.482-.068.725.005.247.028.493.068.737a.329.329 0 0 0 .362.26c.39-.03.763.164.963.5a.997.997 0 0 1-.068 1.132.306.306 0 0 0 .068.43c.372.306.8.537 1.258.68a.306.306 0 0 0 .397-.17c.176-.353.534-.58.929-.589a.974.974 0 0 1 .906.59.306.306 0 0 0 .295.204c.032.014.07.014.102 0 .462-.158.89-.404 1.258-.726a.306.306 0 0 0 .068-.43.997.997 0 0 1-.068-1.133c.2-.336.573-.529.963-.499a.329.329 0 0 0 .362-.26c.038-.244.061-.49.068-.737.02-.26.02-.522 0-.782zm-3.92 2.028a1.303 1.303 0 1 1 1.303-1.303 1.303 1.303 0 0 1-1.337 1.326l.034-.023zm-9.824-6.56l4.328 2.266c.44.205.72.648.714 1.133v4.533a1.428 1.428 0 0 1-2.13 1.076l-4.317-2.266a1.224 1.224 0 0 1-.714-1.179v-4.532a1.428 1.428 0 0 1 2.119-1.031zm6.515-6.606l4.385 2.56a1.428 1.428 0 0 1 0 2.448l-4.385 2.56a1.36 1.36 0 0 1-1.405 0l-4.385-2.56a1.428 1.428 0 0 1 0-2.448l4.385-2.56a1.36 1.36 0 0 1 1.405 0z"/></svg>
